<?xml version="1.0" encoding="utf-8"?>
<!-- Generator: Adobe Illustrator 16.0.2, SVG Export Plug-In . SVG Version: 6.00 Build 0)  -->
<!DOCTYPE svg PUBLIC "-//W3C//DTD SVG 1.1//EN" "http://www.w3.org/Graphics/SVG/1.1/DTD/svg11.dtd">
<svg version="1.1" id="Layer_1" xmlns="http://www.w3.org/2000/svg" xmlns:xlink="http://www.w3.org/1999/xlink" x="0px" y="0px"
	 width="320px" height="320px" viewBox="0 0 320 320" enable-background="new 0 0 320 320" xml:space="preserve">
<g>
	<path fill="#656565" stroke="#656565" stroke-miterlimit="10" d="M128.296,217.059L128.296,217.059
		c26.673-7.146,51.772,0.033,56.062,16.037l7.764,28.979c4.289,16.004-13.857,34.771-40.531,41.918l0,0
		c-26.673,7.147-51.772-0.033-56.061-16.037l-7.765-28.978C83.477,242.975,101.623,224.206,128.296,217.059z"/>
	<defs>
		<filter id="Adobe_OpacityMaskFilter" filterUnits="userSpaceOnUse" x="0" y="20" width="320" height="260">
			<feColorMatrix  type="matrix" values="1 0 0 0 0  0 1 0 0 0  0 0 1 0 0  0 0 0 1 0"/>
		</filter>
	</defs>
	<mask maskUnits="userSpaceOnUse" x="0" y="20" width="320" height="260" id="a">
		<path fill="#FFFFFF" filter="url(#Adobe_OpacityMaskFilter)" d="M0,0h320v320H0V0z"/>
		<circle cx="120" cy="90" r="25"/>
	</mask>
	<g mask="url(#a)">
		<g>
			<path id="b" fill="#656565" stroke="#656565" stroke-width="20" d="M180,140c20-60,0-110-60-110S10,80,10,150s50,120,110,120
				c26.667,0,46.666-16.666,60-50c13.334,6.666,25,5,35-5c16.666,6.666,28.334,5,35-5c13.334,3.334,23.334,0,30-10c20,0,30-10,30-30
				S266.666,140,180,140z"/>
		</g>
		<path fill="#656565" stroke="#656565" stroke-width="5" d="M210,120c-20-40,0-66.667,60-80c-6.666,6.667-10,16.667-10,30
			C260,96.667,243.334,113.333,210,120z"/>
		<path fill="#656565" stroke="#656565" stroke-width="5" d="M180,80c-13.334,13.333-13.334,26.667,0,40l25-10l-2-10
			c11.334,0,23.666,3.333,37,10C226.666,90,206.666,80,180,80z"/>
	</g>
</g>
</svg>
