<?xml version="1.0" encoding="utf-8"?>
<!-- Generator: Adobe Illustrator 16.0.2, SVG Export Plug-In . SVG Version: 6.00 Build 0)  -->
<!DOCTYPE svg PUBLIC "-//W3C//DTD SVG 1.1//EN" "http://www.w3.org/Graphics/SVG/1.1/DTD/svg11.dtd">
<svg version="1.1" id="Layer_1" xmlns="http://www.w3.org/2000/svg" xmlns:xlink="http://www.w3.org/1999/xlink" x="0px" y="0px"
	 width="320px" height="320px" viewBox="0 0 320 320" enable-background="new 0 0 320 320" xml:space="preserve">
<defs>
	<filter id="Adobe_OpacityMaskFilter" filterUnits="userSpaceOnUse" x="40" y="60" width="280" height="200">
		<feColorMatrix  type="matrix" values="1 0 0 0 0  0 1 0 0 0  0 0 1 0 0  0 0 0 1 0"/>
	</filter>
</defs>
<mask maskUnits="userSpaceOnUse" x="40" y="60" width="280" height="200" id="a">
	<path fill="#FFFFFF" filter="url(#Adobe_OpacityMaskFilter)" d="M0,0h320v320H0V0z"/>
	<g transform="matrix(.5 0 0 .5 100 80)">
		<path stroke="#000000" stroke-width="20" d="M180,140c20-60,0-110-60-110S10,80,10,150s50,120,110,120
			c26.668,0,46.668-16.668,60-50c13.332,6.668,25,5,35-5c16.668,6.668,28.332,5,35-5c13.332,3.332,23.332,0,30-10c20,0,30-10,30-30
			S266.668,140,180,140z"/>
		<path d="M128.297,217.059L128.297,217.059c26.672-7.146,51.773,0.033,56.061,16.037l7.764,28.979
			c4.289,16.004-13.857,34.771-40.531,41.918l0,0c-26.672,7.148-51.772-0.033-56.061-16.037l-7.765-28.979
			C83.477,242.973,101.623,224.207,128.297,217.059z"/>
		<g>
			<path d="M210,120c-20-40,0-66.667,60-80c-6.668,6.667-10,16.667-10,30C260,96.667,243.332,113.333,210,120z"/>
			<path d="M180,80c-13.332,13.333-13.332,26.667,0,40l25-10l-2-10c11.332,0,23.668,3.333,37,10C226.668,90,206.668,80,180,80z"/>
		</g>
	</g>
</mask>
<path mask="url(#a)" fill="#656565" d="M40,60h280v200H40V60z"/>
<path fill="none" stroke="#656565" stroke-width="20" d="M150,70l40-40h120v40"/>
</svg>
