<?xml version="1.0" encoding="utf-8"?>
<!-- Generator: Adobe Illustrator 16.0.2, SVG Export Plug-In . SVG Version: 6.00 Build 0)  -->
<!DOCTYPE svg PUBLIC "-//W3C//DTD SVG 1.1//EN" "http://www.w3.org/Graphics/SVG/1.1/DTD/svg11.dtd">
<svg version="1.1" id="Layer_1" xmlns="http://www.w3.org/2000/svg" xmlns:xlink="http://www.w3.org/1999/xlink" x="0px" y="0px"
	 width="612px" height="792px" viewBox="0 0 612 792" enable-background="new 0 0 612 792" xml:space="preserve">
<g>
	<rect x="38.25" y="587.25" opacity="0.7" fill="#656565" enable-background="new    " width="535.5" height="76.5"/>
	<rect x="76.5" y="128.25" opacity="0.7" fill="#656565" enable-background="new    " width="459" height="420.75"/>
	<path opacity="0.6" fill="#231F20" enable-background="new    " d="M325.125,357.673c0.159,16.21-1.24,32.397-4.178,48.34
		c-2.231,12.766-6.784,25.016-13.433,36.14c-5.796,9.509-14.023,17.3-23.833,22.569c-10.973,5.472-23.128,8.144-35.384,7.777
		c-11.697,0.281-23.275-2.394-33.663-7.777c-9.731-5.349-17.914-13.124-23.753-22.568c-6.78-11.127-11.549-23.36-14.088-36.141
		c-3.278-15.9-4.843-32.106-4.668-48.34c-0.159-16.209,1.24-32.397,4.177-48.339c2.22-12.721,6.715-24.938,13.269-36.064
		c5.708-9.474,13.854-17.242,23.589-22.493c10.887-5.466,22.961-8.138,35.138-7.777c11.767-0.285,23.419,2.361,33.909,7.701
		c9.772,5.285,18.011,13.006,23.917,22.417c6.845,11.084,11.67,23.295,14.251,36.064
		C323.714,325.125,325.308,341.385,325.125,357.673z M202.43,357.673c-0.121,13.359,0.7,26.709,2.457,39.952
		c1.195,9.818,3.845,19.402,7.863,28.439c3.04,6.901,7.948,12.817,14.17,17.079c6.407,3.969,13.844,5.958,21.377,5.718
		c7.548,0.232,15.001-1.728,21.459-5.642c6.288-4.211,11.302-10.064,14.497-16.926c4.201-8.993,6.965-18.589,8.19-28.438
		c1.816-13.315,2.665-26.744,2.539-40.182c0.125-13.361-0.724-26.714-2.539-39.952c-1.231-9.824-3.995-19.395-8.19-28.363
		c-3.194-6.861-8.208-12.715-14.497-16.926c-6.458-3.914-13.912-5.874-21.459-5.642c-7.523-0.24-14.953,1.721-21.377,5.642
		c-6.217,4.201-11.127,10.066-14.17,16.926c-4.025,9.008-6.676,18.569-7.863,28.363C203.13,330.964,202.309,344.315,202.43,357.673
		L202.43,357.673z"/>
	<path opacity="0.6" fill="#231F20" enable-background="new    " d="M439.875,469.31h-30.934V327.982
		c0-4.437,0.029-9.184,0.088-14.241c0.059-5.057,0.176-10.088,0.352-15.093s0.352-9.804,0.527-14.396s0.322-8.643,0.439-12.151
		c-1.992,1.858-3.749,3.457-5.272,4.799c-1.523,1.341-3.076,2.631-4.658,3.87c-1.582,1.239-3.251,2.554-5.009,3.947
		s-3.867,3.019-6.327,4.877l-26.013,18.73l-16.873-19.04L413.511,243h26.364V469.31z"/>
</g>
</svg>
