<?xml version="1.0" encoding="utf-8"?>
<!-- Generator: Adobe Illustrator 16.0.2, SVG Export Plug-In . SVG Version: 6.00 Build 0)  -->
<!DOCTYPE svg PUBLIC "-//W3C//DTD SVG 1.1//EN" "http://www.w3.org/Graphics/SVG/1.1/DTD/svg11.dtd">
<svg version="1.1" id="Layer_1" xmlns="http://www.w3.org/2000/svg" xmlns:xlink="http://www.w3.org/1999/xlink" x="0px" y="0px"
	 width="320px" height="320px" viewBox="0 0 320 320" enable-background="new 0 0 320 320" xml:space="preserve">
<g>
	<g transform="rotate(135 70 110)">
		
			<ellipse transform="matrix(2.459684e-006 1 -1 2.459684e-006 179.9998 39.9997)" fill="#656565" cx="70" cy="110" rx="70" ry="60"/>
		<text transform="matrix(1 0 0 1 35.001 155.0007)" fill="#0000FF" font-family="'ArialMT'" font-size="120">6</text>
	</g>
	<g transform="rotate(45 250 110)">
		
			<ellipse transform="matrix(2.698102e-006 1 -1 2.698102e-006 359.9992 -139.9995)" fill="#656565" cx="250" cy="110" rx="70" ry="60"/>
		<text transform="matrix(1 0 0 1 215.0002 155.0001)" fill="#0000FF" font-family="'ArialMT'" font-size="120">6</text>
	</g>
	<g transform="rotate(45 90 220)">
		
			<ellipse transform="matrix(-3.143153e-006 1 -1 -3.143153e-006 310.0002 130.0008)" fill="#656565" cx="90" cy="220" rx="59.999" ry="50"/>
		
			<ellipse transform="matrix(-8.865199e-006 1 -1 -8.865199e-006 310.0007 130.002)" fill="#0000FF" stroke="#FF3366" stroke-width="10" cx="90" cy="220" rx="30" ry="25"/>
	</g>
	<g transform="rotate(-45 230 220)">
		
			<ellipse transform="matrix(2.396111e-006 1 -1 2.396111e-006 449.9992 -10.0004)" fill="#656565" cx="230" cy="220" rx="59.999" ry="50"/>
		
			<ellipse transform="matrix(2.396111e-006 1 -1 2.396111e-006 449.9992 -10.0004)" fill="#0000FF" stroke="#FF3366" stroke-width="10" cx="230" cy="220" rx="30" ry="25"/>
	</g>
</g>
<ellipse fill="#FFFF00" cx="160" cy="180" rx="50" ry="40"/>
<g>
	<circle stroke="#FFFFFF" stroke-width="10" cx="130" cy="160" r="15"/>
	<circle stroke="#FFFFFF" stroke-width="10" cx="190" cy="160" r="15"/>
</g>
</svg>
