<?xml version="1.0" encoding="utf-8"?>
<!-- Generator: Adobe Illustrator 16.0.2, SVG Export Plug-In . SVG Version: 6.00 Build 0)  -->
<!DOCTYPE svg PUBLIC "-//W3C//DTD SVG 1.1//EN" "http://www.w3.org/Graphics/SVG/1.1/DTD/svg11.dtd">
<svg version="1.1" id="Layer_1" xmlns="http://www.w3.org/2000/svg" xmlns:xlink="http://www.w3.org/1999/xlink" x="0px" y="0px"
	 width="320px" height="320px" viewBox="0 0 320 320" enable-background="new 0 0 320 320" xml:space="preserve">
<path fill="#656565" d="M0,40h320v240H0V40z"/>
<path d="M20,100h280v160H20V100z M280,60h20v20h-20V60z M240,60h20v20h-20V60z M200,60h20v20h-20V60z"/>
<path fill="none" stroke="#656565" stroke-width="20" d="M130,150l-20-20H70l-20,20v60l20,20h40l20-20 M210,120l60,120"/>
<path fill="#656565" d="M160,140h20v20h-20V140z M160,200h20v20h-20V200z"/>
</svg>
