<?xml version="1.0" encoding="utf-8"?>
<!-- Generator: Adobe Illustrator 16.0.2, SVG Export Plug-In . SVG Version: 6.00 Build 0)  -->
<!DOCTYPE svg PUBLIC "-//W3C//DTD SVG 1.1//EN" "http://www.w3.org/Graphics/SVG/1.1/DTD/svg11.dtd">
<svg version="1.1" id="Layer_1" xmlns="http://www.w3.org/2000/svg" xmlns:xlink="http://www.w3.org/1999/xlink" x="0px" y="0px"
	 width="612px" height="792px" viewBox="0 0 612 792" enable-background="new 0 0 612 792" xml:space="preserve">
<path opacity="0.7" fill="#656565" enable-background="new    " d="M76.5,243h153V90L76.5,243z"/>
<path opacity="0.7" fill="#656565" enable-background="new    " d="M267.75,90h229.5v306H76.5V281.25h191.25V90z"/>
<rect x="38.25" y="434.25" opacity="0.6" fill="#FF9595" enable-background="new    " width="612" height="267.75"/>
<path opacity="0.7" fill="#231F20" enable-background="new    " d="M76.5,568.652v-0.517c-3.399-49.33,33.835-92.076,83.166-95.476
	c1.041-0.071,2.083-0.125,3.126-0.16c25.053-0.756,49.114,9.816,65.502,28.781l-18.882,24.049
	c-11.633-13.981-28.677-22.338-46.854-22.974c-32.987,2.438-57.752,31.154-55.315,64.142c0.027,0.367,0.058,0.733,0.091,1.101v0.537
	c-3.133,32.987,21.069,62.268,54.056,65.4c0.389,0.037,0.779,0.07,1.168,0.1c18.763-0.341,36.388-9.061,48.042-23.769l18.9,21.122
	c-16.079,21.165-41.323,33.346-67.896,32.761c-49.116-2.039-87.28-43.509-85.241-92.625C76.397,570.3,76.443,569.476,76.5,568.652z"
	/>
<line fill="none" stroke="#231F20" stroke-width="0.6" x1="325.125" y1="510.75" x2="325.125" y2="625.5"/>
<line fill="none" stroke="#231F20" stroke-width="0.6" x1="267.75" y1="568.125" x2="382.5" y2="568.125"/>
<line fill="none" stroke="#231F20" stroke-width="0.6" x1="420.75" y1="568.125" x2="535.5" y2="568.125"/>
<line fill="none" stroke="#231F20" stroke-width="0.6" x1="478.125" y1="510.75" x2="478.125" y2="625.5"/>
</svg>
