<?xml version="1.0" encoding="utf-8"?>
<!-- Generator: Adobe Illustrator 16.0.2, SVG Export Plug-In . SVG Version: 6.00 Build 0)  -->
<!DOCTYPE svg PUBLIC "-//W3C//DTD SVG 1.1//EN" "http://www.w3.org/Graphics/SVG/1.1/DTD/svg11.dtd">
<svg version="1.1" id="Layer_1" xmlns="http://www.w3.org/2000/svg" xmlns:xlink="http://www.w3.org/1999/xlink" x="0px" y="0px"
	 width="612px" height="792px" viewBox="0 0 612 792" enable-background="new 0 0 612 792" xml:space="preserve">
<title>css@2x</title>
<g>
	<rect x="38.25" y="434.25" opacity="0.6" fill="#62B543" enable-background="new    " width="573.75" height="267.75"/>
	<g opacity="0.6">
		<path fill="#231F20" d="M76.5,568.652v-0.517c0-52.571,35.603-95.636,86.292-95.636c25.053-0.756,49.114,9.816,65.502,28.781
			l-18.882,24.049c-11.633-13.981-28.677-22.338-46.854-22.974c-31.807,0-55.224,29.039-55.224,65.241v0.538
			c0,36.181,23.184,65.5,55.224,65.5c18.763-0.341,36.388-9.062,48.042-23.77l18.899,21.123
			c-16.078,21.165-41.323,33.346-67.896,32.761C112.823,663.75,76.5,621.762,76.5,568.652z"/>
	</g>
	<g>
		<polygon opacity="0.7" fill="#656565" enable-background="new    " points="229.5,90 76.5,243 229.5,243 		"/>
		<polygon opacity="0.7" fill="#656565" enable-background="new    " points="267.75,90 267.75,243 267.75,281.25 229.5,281.25 
			76.5,281.25 76.5,396 497.25,396 497.25,90 		"/>
	</g>
	<path opacity="0.6" fill="#231F20" enable-background="new    " d="M333.034,582.469c36.411,7.956,44.246,15.147,44.246,28.426
		v0.523c0,13.82-13.457,23.364-34.729,23.364c-0.579,0-1.074-0.131-1.644-0.149v0.262h-56.086v28.836l56.114-0.056l0.504,0.056
		c41.453,0,70.309-20.692,70.309-55.488v-0.561c0-30.779-21.301-44.861-62.744-54.424c-37.82-8.498-46.785-14.886-46.785-29.229
		v-0.541c0-12.215,11.757-22.038,31.928-22.038l0.729-0.169v0.057h53.621V472.5h-50.306l-0.028,0.262
		c-1.186-0.037-2.25-0.262-3.454-0.262c-38.942,0-66.957,22.058-66.957,53.92v0.542C267.75,561.215,291.301,572.906,333.034,582.469
		z"/>
	<path opacity="0.6" fill="#231F20" enable-background="new    " d="M495.037,582.469c36.4,7.956,44.245,15.147,44.245,28.426v0.523
		c0,13.82-13.457,23.364-34.729,23.364c-0.579,0-1.074-0.131-1.644-0.149v0.262h-56.087v28.836l56.115-0.056
		c0.252,0.02,0.504,0.075,0.766,0.075c41.191,0,70.047-20.712,70.047-55.507v-0.561c0-30.779-21.301-44.861-62.744-54.424
		c-37.821-8.498-46.786-14.886-46.786-29.229v-0.542c0-12.215,11.748-22.038,31.929-22.038c0.308,0,0.438-0.149,0.719-0.169v0.057
		h53.63V472.5h-50.306l-0.027,0.262c-1.187-0.037-2.251-0.262-3.465-0.262c-38.941,0-66.947,22.058-66.947,53.92v0.542
		C429.752,561.215,453.304,572.906,495.037,582.469z"/>
</g>
</svg>
