<?xml version="1.0" encoding="utf-8"?>
<!-- Generator: Adobe Illustrator 16.0.2, SVG Export Plug-In . SVG Version: 6.00 Build 0)  -->
<!DOCTYPE svg PUBLIC "-//W3C//DTD SVG 1.1//EN" "http://www.w3.org/Graphics/SVG/1.1/DTD/svg11.dtd">
<svg version="1.1" id="Layer_1" xmlns="http://www.w3.org/2000/svg" xmlns:xlink="http://www.w3.org/1999/xlink" x="0px" y="0px"
	 width="320px" height="320px" viewBox="0 0 320 320" enable-background="new 0 0 320 320" xml:space="preserve">
<defs>
	<filter id="Adobe_OpacityMaskFilter" filterUnits="userSpaceOnUse" x="40" y="60" width="280" height="200">
		<feColorMatrix  type="matrix" values="1 0 0 0 0  0 1 0 0 0  0 0 1 0 0  0 0 0 1 0"/>
	</filter>
</defs>
<mask maskUnits="userSpaceOnUse" x="40" y="60" width="280" height="200" id="a">
	<path fill="#FFFFFF" filter="url(#Adobe_OpacityMaskFilter)" d="M0,0h320v320H0V0z"/>
	<path stroke="#000000" stroke-width="20" stroke-linejoin="round" d="M180,90l70,70l-70,70l-70-70L180,90z"/>
	<path stroke="#FFFFFF" stroke-width="12.5" d="M135,80l80,80 M180,125v70"/>
	<g transform="matrix(.5 0 0 .5 100 80)">
		<circle fill="#FFFFFF" cx="160" cy="90" r="30"/>
		<circle fill="#FFFFFF" cx="230" cy="160" r="30"/>
		<circle fill="#FFFFFF" cx="160" cy="230" r="30"/>
	</g>
</mask>
<path mask="url(#a)" fill="#656565" d="M40,60h280v200H40V60z"/>
<path fill="none" stroke="#656565" stroke-width="20" d="M150,70l40-40h120v40"/>
</svg>
