<?xml version="1.0" encoding="utf-8"?>
<!-- Generator: Adobe Illustrator 16.0.2, SVG Export Plug-In . SVG Version: 6.00 Build 0)  -->
<!DOCTYPE svg PUBLIC "-//W3C//DTD SVG 1.1//EN" "http://www.w3.org/Graphics/SVG/1.1/DTD/svg11.dtd">
<svg version="1.1" id="Layer_1" xmlns="http://www.w3.org/2000/svg" xmlns:xlink="http://www.w3.org/1999/xlink" x="0px" y="0px"
	 width="612px" height="792px" viewBox="0 0 612 792" enable-background="new 0 0 612 792" xml:space="preserve">
<title>javaOutsideSource@2x</title>
<g>
	<ellipse opacity="0.6" fill="#F26522" enable-background="new    " cx="171.91" cy="568.125" rx="133.66" ry="133.875"/>
	<g>
		<polygon opacity="0.7" fill="#656565" enable-background="new    " points="229.5,90 76.5,243 229.5,243 		"/>
		<path opacity="0.7" fill="#656565" enable-background="new    " d="M267.75,90v191.25H76.5v143.886
			c78.515-53.094,185.205-32.486,238.299,46.029c50.348,74.454,34.722,175.143-35.824,230.835H497.25V90H267.75z"/>
	</g>
	<g opacity="0.6">
		<path fill="#231F20" d="M107.877,633.308l21.347-22.634c7.777,13.278,21.762,21.703,37.136,22.371
			c17.399,0,29.263-11.865,29.263-37.176V472.5h33.447v124.444c1.069,18.34-5.18,36.355-17.378,50.094
			c-12.022,11.454-28.208,17.493-44.795,16.712C143.314,664.354,121.056,652.873,107.877,633.308z"/>
	</g>
</g>
</svg>
