<?xml version="1.0" encoding="utf-8"?>
<!-- Generator: Adobe Illustrator 16.0.2, SVG Export Plug-In . SVG Version: 6.00 Build 0)  -->
<!DOCTYPE svg PUBLIC "-//W3C//DTD SVG 1.1//EN" "http://www.w3.org/Graphics/SVG/1.1/DTD/svg11.dtd">
<svg version="1.1" id="Layer_1" xmlns="http://www.w3.org/2000/svg" xmlns:xlink="http://www.w3.org/1999/xlink" x="0px" y="0px"
	 width="612px" height="792px" viewBox="0 0 612 792" enable-background="new 0 0 612 792" xml:space="preserve">
<g>
	<g>
		<polygon opacity="0.7" fill="#656565" enable-background="new    " points="204,69.6 40.8,232.8 204,232.8 		"/>
		<rect y="436.8" opacity="0.6" fill="#F26522" enable-background="new    " width="612" height="285.601"/>
		<polygon opacity="0.7" fill="#656565" enable-background="new    " points="244.8,69.6 244.8,232.8 244.8,273.6 204,273.6 
			40.8,273.6 40.8,396 489.6,396 489.6,69.6 		"/>
	</g>
	<path opacity="0.6" fill="#231F20" enable-background="new    " d="M273.637,594.9c38.838,8.486,47.195,16.156,47.195,30.32v0.558
		c0,14.743-14.354,24.923-37.045,24.923c-0.618,0-1.146-0.14-1.753-0.159v0.278H204v30.759l78.064-0.06l0.537,0.06
		c44.216,0,74.996-22.072,74.996-59.188v-0.598c0-32.831-22.721-47.853-66.927-58.053c-40.342-9.064-49.904-15.877-49.904-31.178
		v-0.577c0-13.028,12.541-23.508,34.057-23.508l0.777-0.179v0.06h57.195V477.6h-53.659l-0.03,0.279
		c-1.265-0.04-2.4-0.279-3.685-0.279c-41.538,0-71.42,23.528-71.42,57.515v0.578C204,572.229,229.122,584.7,273.637,594.9z"/>
	<g opacity="0.6">
		<path fill="#231F20" d="M54.328,649.129l22.77-24.144c8.296,14.164,23.213,23.149,39.612,23.862
			c18.559,0,31.214-12.656,31.214-39.653V477.6H183.6v132.741c1.141,19.563-5.525,38.779-18.536,53.433
			c-12.824,12.219-30.088,18.659-47.782,17.826C92.128,682.244,68.386,669.998,54.328,649.129z"/>
	</g>
</g>
</svg>
