<?xml version="1.0" encoding="utf-8"?>
<!-- Generator: Adobe Illustrator 16.0.2, SVG Export Plug-In . SVG Version: 6.00 Build 0)  -->
<!DOCTYPE svg PUBLIC "-//W3C//DTD SVG 1.1//EN" "http://www.w3.org/Graphics/SVG/1.1/DTD/svg11.dtd">
<svg version="1.1" id="Layer_1" xmlns="http://www.w3.org/2000/svg" xmlns:xlink="http://www.w3.org/1999/xlink" x="0px" y="0px"
	 width="612px" height="792px" viewBox="0 0 612 792" enable-background="new 0 0 612 792" xml:space="preserve">
<title>java</title>
<g>
	<g>
		<polygon opacity="0.7" fill="#656565" enable-background="new    " points="229.5,90 76.5,243 229.5,243 		"/>
		<rect x="38.25" y="434.25" opacity="0.6" fill="#40B6E0" enable-background="new    " width="573.75" height="267.75"/>
		<polygon opacity="0.7" fill="#656565" enable-background="new    " points="267.75,90 267.75,243 267.75,281.25 229.5,281.25 
			76.5,281.25 76.5,396 497.25,396 497.25,90 		"/>
	</g>
	<g opacity="0.6">
		<path fill="#231F20" d="M108.308,633.308l21.346-22.634c7.778,13.278,21.763,21.703,37.137,22.371
			c16.896-0.344,30.315-14.32,29.971-31.217c-0.041-2.004-0.279-4-0.71-5.958V472.5H229.5v124.444
			c1.07,18.34-5.18,36.355-17.377,50.093c-12.022,11.455-28.208,17.494-44.795,16.713
			C143.745,664.354,121.487,652.873,108.308,633.308z"/>
	</g>
</g>
</svg>
