<?xml version="1.0" encoding="utf-8"?>
<!-- Generator: Adobe Illustrator 16.0.2, SVG Export Plug-In . SVG Version: 6.00 Build 0)  -->
<!DOCTYPE svg PUBLIC "-//W3C//DTD SVG 1.1//EN" "http://www.w3.org/Graphics/SVG/1.1/DTD/svg11.dtd">
<svg version="1.1" id="Layer_1" xmlns="http://www.w3.org/2000/svg" xmlns:xlink="http://www.w3.org/1999/xlink" x="0px" y="0px"
	 width="612px" height="792px" viewBox="0 0 612 792" enable-background="new 0 0 612 792" xml:space="preserve">
<title>json@2x</title>
<g>
	<g>
		<polygon opacity="0.7" fill="#656565" enable-background="new    " points="229.5,90 76.5,243 229.5,243 		"/>
		<rect x="38.25" y="434.25" opacity="0.6" fill="#40B6E0" enable-background="new    " width="573.75" height="267.75"/>
		<polygon opacity="0.7" fill="#656565" enable-background="new    " points="267.75,90 267.75,243 267.75,281.25 229.5,281.25 
			76.5,281.25 76.5,396 497.25,396 497.25,90 		"/>
	</g>
	<path opacity="0.6" fill="#231F20" enable-background="new    " d="M228.485,582.469c31.433,7.956,38.197,15.147,38.197,28.426
		v0.523c-1.059,14.132-13.372,24.729-27.504,23.672c-0.83-0.063-1.657-0.165-2.478-0.308c-0.5,0-0.927-0.131-1.419-0.149v0.262
		h-63.156v28.836l63.18-0.056l0.435,0.056c29.944,3.396,56.97-18.127,60.365-48.071c0.279-2.462,0.39-4.939,0.333-7.416v-0.561
		c0-30.779-18.389-44.861-54.167-54.424c-32.65-8.498-40.39-14.886-40.39-29.229v-0.542c0.894-13.191,12.313-23.161,25.504-22.268
		c0.689,0.047,1.376,0.123,2.059,0.229l0.629-0.168v0.056h46.291V472.5h-43.429l-0.024,0.262c-1.023-0.037-1.943-0.262-2.983-0.262
		c-29.57-2.267-55.38,19.867-57.647,49.438c-0.114,1.491-0.167,2.986-0.156,4.482v0.542
		C172.125,561.215,192.457,572.906,228.485,582.469z"/>
	<g opacity="0.6">
		<path fill="#231F20" d="M306,568.652v-0.517c0-52.056,28.229-95.636,68.181-95.636c39.938,0,67.803,43.064,67.803,95.098v0.538
			c0,52.034-28.229,95.614-68.181,95.614C333.865,663.75,306,620.707,306,568.652z M413.313,568.652v-0.517
			c0-35.944-13.688-65.779-39.51-65.779c-25.823,0-38.053,29.318-38.053,65.241v0.538c0,35.923,12.607,65.5,38.431,65.5
			S413.313,604.574,413.313,568.652z"/>
	</g>
	<path opacity="0.6" fill="#231F20" enable-background="new    " d="M124.313,472.5v123.369c1.921,18.514-11.529,35.079-30.043,37
		c-1.321,0.137-2.649,0.196-3.977,0.176c-8.824,0.052-17.375-3.056-24.107-8.762l-8.811,31.669
		c10.348,5.287,21.831,7.964,33.45,7.798c16.588,0.781,32.774-5.258,44.796-16.715c12.2-13.736,18.45-31.752,17.379-50.092V472.5
		H124.313z"/>
	<path opacity="0.6" fill="#231F20" enable-background="new    " d="M461.591,472.5h28.591l72.347,129.625V472.5h30.347v191.25
		h-25.834l-75.104-128.563V663.75h-30.347V472.5z"/>
</g>
</svg>
