<?xml version="1.0" encoding="utf-8"?>
<!-- Generator: Adobe Illustrator 16.0.2, SVG Export Plug-In . SVG Version: 6.00 Build 0)  -->
<!DOCTYPE svg PUBLIC "-//W3C//DTD SVG 1.1//EN" "http://www.w3.org/Graphics/SVG/1.1/DTD/svg11.dtd">
<svg version="1.1" id="Layer_1" xmlns="http://www.w3.org/2000/svg" xmlns:xlink="http://www.w3.org/1999/xlink" x="0px" y="0px"
	 width="320px" height="320px" viewBox="0 0 320 320" enable-background="new 0 0 320 320" xml:space="preserve">
<path fill="none" stroke="#656565" stroke-width="40" d="M160,20L160,20c44.183,0,80,35.817,80,80v160c0,44.183-35.817,80-80,80l0,0
	c-44.183,0-80-35.817-80-80V100C80,55.817,115.817,20,160,20z"/>
<defs>
	<filter id="Adobe_OpacityMaskFilter" filterUnits="userSpaceOnUse" x="40" y="140" width="240" height="180">
		<feColorMatrix  type="matrix" values="1 0 0 0 0  0 1 0 0 0  0 0 1 0 0  0 0 0 1 0"/>
	</filter>
</defs>
<mask maskUnits="userSpaceOnUse" x="40" y="140" width="240" height="180" id="a">
	<path fill="#FFFFFF" filter="url(#Adobe_OpacityMaskFilter)" d="M0,0h320v320H0V0z"/>
	<circle cx="160" cy="210" r="30"/>
	<path d="M160,220l-30,60h60L160,220z"/>
</mask>
<g mask="url(#a)">
	<path fill="#DFBF3F" d="M40,140h120v180H40V140z"/>
	<path fill="#BF9F1F" d="M160,140h120v180H160V140z"/>
</g>
</svg>
