<?xml version="1.0" encoding="utf-8"?>
<!-- Generator: Adobe Illustrator 16.0.2, SVG Export Plug-In . SVG Version: 6.00 Build 0)  -->
<!DOCTYPE svg PUBLIC "-//W3C//DTD SVG 1.1//EN" "http://www.w3.org/Graphics/SVG/1.1/DTD/svg11.dtd">
<svg version="1.1" id="Layer_1" xmlns="http://www.w3.org/2000/svg" xmlns:xlink="http://www.w3.org/1999/xlink" x="0px" y="0px"
	 width="612px" height="792px" viewBox="0 0 612 792" enable-background="new 0 0 612 792" xml:space="preserve">
<title>config@2x</title>
<g>
	<g>
		<polygon opacity="0.7" fill="#656565" enable-background="new    " points="229.5,90 76.5,243 229.5,243 		"/>
		<path opacity="0.7" fill="#656565" enable-background="new    " d="M229.5,529.875c-0.255-115.932,93.52-210.12,209.452-210.375
			c19.718-0.043,39.343,2.691,58.298,8.125V90h-229.5v191.25H76.5v382.5h201.093C246.44,626.099,229.429,578.743,229.5,529.875z"/>
	</g>
	<path fill="#40B6E0" d="M405.489,701.995l-0.002-48.81c-9.907-2.786-19.445-6.75-28.408-11.808l-34.537,34.523l-48.699-48.661
		l34.558-34.542c-5.066-8.96-9.031-18.499-11.809-28.41h-48.804l-0.004-68.83h48.804c2.777-9.911,6.741-19.45,11.806-28.41
		l-34.561-34.543l48.693-48.661l34.542,34.523c8.963-5.059,18.5-9.021,28.407-11.809l-0.004-48.809h68.823l0.002,48.809
		c9.908,2.787,19.445,6.75,28.408,11.809l34.537-34.523l48.66,48.662l-34.518,34.542c5.062,8.956,9.012,18.497,11.763,28.41h48.849
		L612,564.287h-48.849c-2.751,9.913-6.7,19.454-11.761,28.41l34.521,34.543l-48.654,48.661l-34.541-34.522
		c-8.963,5.057-18.5,9.021-28.406,11.808l0.002,48.809 M439.89,480.119c-27.479-0.002-49.758,22.271-49.761,49.751
		s22.271,49.758,49.751,49.761s49.758-22.271,49.761-49.751c0-0.002,0-0.005,0-0.007c0.004-27.474-22.264-49.749-49.737-49.754
		C439.898,480.119,439.894,480.119,439.89,480.119z"/>
</g>
</svg>
