<?xml version="1.0" encoding="utf-8"?>
<!-- Generator: Adobe Illustrator 16.0.2, SVG Export Plug-In . SVG Version: 6.00 Build 0)  -->
<!DOCTYPE svg PUBLIC "-//W3C//DTD SVG 1.1//EN" "http://www.w3.org/Graphics/SVG/1.1/DTD/svg11.dtd">
<svg version="1.1" id="Layer_1" xmlns="http://www.w3.org/2000/svg" xmlns:xlink="http://www.w3.org/1999/xlink" x="0px" y="0px"
	 width="612px" height="792px" viewBox="0 0 612 792" enable-background="new 0 0 612 792" xml:space="preserve">
<title>jspx@2x</title>
<g>
	<g>
		<polygon opacity="0.7" fill="#656565" enable-background="new    " points="229.5,90 76.5,243 229.5,243 		"/>
		<rect x="38.25" y="434.25" opacity="0.6" fill="#F26522" enable-background="new    " width="573.75" height="267.75"/>
		<polygon opacity="0.7" fill="#656565" enable-background="new    " points="267.75,90 267.75,243 267.75,281.25 229.5,281.25 
			76.5,281.25 76.5,396 497.25,396 497.25,90 		"/>
	</g>
	<path opacity="0.6" fill="#231F20" enable-background="new    " d="M294.785,582.469c36.411,7.956,44.246,15.147,44.246,28.426
		v0.523c0,13.82-13.457,23.364-34.729,23.364c-0.579,0-1.074-0.131-1.644-0.149v0.262H229.5v28.836l73.185-0.056l0.504,0.056
		c41.453,0,70.309-20.692,70.309-55.488v-0.561c0-30.779-21.301-44.861-62.744-54.424c-37.821-8.498-46.786-14.886-46.786-29.229
		v-0.541c0-12.215,11.757-22.038,31.928-22.038l0.729-0.169v0.057h53.621V472.5h-50.306l-0.028,0.262
		c-1.186-0.037-2.25-0.262-3.455-0.262c-38.941,0-66.957,22.058-66.957,53.92v0.542C229.5,561.215,253.051,572.906,294.785,582.469z
		"/>
	<g opacity="0.6">
		<path fill="#231F20" d="M555.628,472.5l-65.497,93.434l68.186,97.816h-38.923l-49.652-72.945l-49.39,72.945H382.5l67.923-97.26
			l-65.234-93.99h38.922l46.702,69.408l46.964-69.408H555.628L555.628,472.5z"/>
	</g>
	<g opacity="0.6">
		<path fill="#231F20" d="M89.183,633.308l21.347-22.634c7.777,13.278,21.762,21.703,37.136,22.371
			c17.399,0,29.263-11.865,29.263-37.176V472.5h33.446v124.444c1.069,18.34-5.18,36.355-17.377,50.094
			c-12.023,11.454-28.208,17.493-44.795,16.712C124.62,664.354,102.362,652.873,89.183,633.308z"/>
	</g>
</g>
</svg>
