<?xml version="1.0" encoding="utf-8"?>
<!-- Generator: Adobe Illustrator 16.0.2, SVG Export Plug-In . SVG Version: 6.00 Build 0)  -->
<!DOCTYPE svg PUBLIC "-//W3C//DTD SVG 1.1//EN" "http://www.w3.org/Graphics/SVG/1.1/DTD/svg11.dtd">
<svg version="1.1" id="Layer_1" xmlns="http://www.w3.org/2000/svg" xmlns:xlink="http://www.w3.org/1999/xlink" x="0px" y="0px"
	 width="320px" height="320px" viewBox="0 0 320 320" enable-background="new 0 0 320 320" xml:space="preserve">
<path fill="#656565" d="M100,0h120v20H100V0z M100,20h20v20h-20V20z M200,20h20v20h-20V20z M0,40h320v40H0V40z M40,80h240v20H40V80z
	 M40,280h240v40H40V280z M40,100h20v180H40V100z M80,100h40v180H80V100z M140,100h40v180h-40V100z M200,100h40v180h-40V100z
	 M260,100h20v180h-20V100z"/>
</svg>
