<?xml version="1.0" encoding="utf-8"?>
<!-- Generator: Adobe Illustrator 16.0.2, SVG Export Plug-In . SVG Version: 6.00 Build 0)  -->
<!DOCTYPE svg PUBLIC "-//W3C//DTD SVG 1.1//EN" "http://www.w3.org/Graphics/SVG/1.1/DTD/svg11.dtd">
<svg version="1.1" id="Layer_1" xmlns="http://www.w3.org/2000/svg" xmlns:xlink="http://www.w3.org/1999/xlink" x="0px" y="0px"
	 width="612px" height="792px" viewBox="0 0 612 792" enable-background="new 0 0 612 792" xml:space="preserve">
<title>typeScript</title>
<g>
	<g>
		<polygon opacity="0.7" fill="#656565" enable-background="new    " points="229.5,90 76.5,243 229.5,243 		"/>
		<polygon opacity="0.7" fill="#656565" enable-background="new    " points="267.75,90 267.75,243 267.75,281.25 229.5,281.25 
			76.5,281.25 76.5,396 497.25,396 497.25,90 		"/>
	</g>
	<rect x="38.25" y="434.25" opacity="0.6" fill="#40B6E0" enable-background="new    " width="573.75" height="267.75"/>
	<g opacity="0.6">
		<path fill="#231F20" d="M136.31,503.645H76.5V472.5h153v31.145h-59.788V663.75H136.31V503.645z"/>
	</g>
	<path opacity="0.6" fill="#231F20" enable-background="new    " d="M354.08,553.259c-40.183-8.498-49.706-14.886-49.706-29.229
		v-0.542c3.027-15.288,17.875-25.228,33.163-22.2c0.255,0.05,0.509,0.104,0.763,0.162c0.167,0.013,0.332-0.041,0.459-0.15
		l0.304,0.039h56.979V472.5h-53.449l-0.031,0.262c-1.256-0.037-2.387-0.262-3.674-0.262c-33.623-5.444-65.293,17.399-70.738,51.022
		c-0.156,0.963-0.289,1.929-0.399,2.897v0.542c0,34.253,25.021,45.944,69.369,55.507c38.676,7.956,47.006,15.147,47.006,28.426
		v0.522c-3.445,16.457-19.578,27.004-36.034,23.559c-0.289-0.061-0.577-0.125-0.863-0.193c-0.617,0-1.141-0.131-1.748-0.149v0.262
		h-59.593v28.837l59.626-0.058l0.814,0.076c43.762,0,74.423-20.712,74.423-55.507v-0.561
		C420.75,576.903,398.115,562.821,354.08,553.259z"/>
</g>
</svg>
