<?xml version="1.0" encoding="utf-8"?>
<!-- Generator: Adobe Illustrator 16.0.2, SVG Export Plug-In . SVG Version: 6.00 Build 0)  -->
<!DOCTYPE svg PUBLIC "-//W3C//DTD SVG 1.1//EN" "http://www.w3.org/Graphics/SVG/1.1/DTD/svg11.dtd">
<svg version="1.1" id="Layer_1" xmlns="http://www.w3.org/2000/svg" xmlns:xlink="http://www.w3.org/1999/xlink" x="0px" y="0px"
	 width="320px" height="320px" viewBox="0 0 320 320" enable-background="new 0 0 320 320" xml:space="preserve">
<path fill="#656565" d="M160,0l20,35l20-5c20,46.667,10,90-30,130c40,33.334,51.666,68.334,35,105c16.666-3.334,31.666-8.334,45-15
	s26.666-11.666,40-15c20-5,20,20,0,25c-13.334,3.334-26.666,10-40,20s-35,18.334-65,25c-3.334,10-31.667,15-85,15c-20,0-30-20-10-30
	l-10-10l-10,20c-6.667,13.334-16.667,16.666-30,10s-16.667-13.334-10-20c-6.667,0-11.667-3.334-15-10c-10-20-5-40,15-60
	c0-40,13.333-71.667,40-95c-13.333-23.333-13.333-43.333,0-60c10-6.667,16.667-11.667,20-15c13.333-13.333,28.333-18.333,45-15"/>
</svg>
